nColumns=19
nRows=114
DataType=double
version=3
OpenSimVersion=4.1
endheader
time	ground_force_calcn_r_vx	ground_force_calcn_r_vy	ground_force_calcn_r_vz	ground_force_calcn_r_px	ground_force_calcn_r_py	ground_force_calcn_r_pz	ground_force_calcn_r_mx	ground_force_calcn_r_my	ground_force_calcn_r_mz	ground_force_calcn_l_vx	ground_force_calcn_l_vy	ground_force_calcn_l_vz	ground_force_calcn_l_px	ground_force_calcn_l_py	ground_force_calcn_l_pz	ground_force_calcn_l_mx	ground_force_calcn_l_my	ground_force_calcn_l_mz
2.94	0	0	0	0	0	0	0	0	0	267.146	2095.09	10.5403	0.718702	0	-0.330203	-0.0311082	-0.243966	-0.00122738
2.945	0	0	0	0	0	0	0	0	0	305.88	1951.71	27.8707	0.699966	0	-0.329581	-3.0024	-19.1572	-0.273568
2.95	0	0	0	0	0	0	0	0	0	338.422	1779.4	40.2867	0.677159	0	-0.330094	-6.06904	-31.9106	-0.722475
2.955	0	0	0	0	0	0	0	0	0	364.338	1585.32	33.9027	0.649357	0	-0.331056	-6.95017	-30.2418	-0.646734
2.96	0	0	0	0	0	0	0	0	0	384.495	1378.91	-0.420531	0.615546	0	-0.330935	-3.4582	-12.4021	0.00378231
2.965	0	0	0	0	0	0	0	0	0	400.452	1171.91	-57.0111	0.577123	0	-0.32747	5.32912	15.5955	-0.758691
2.97	0	0	0	0	0	0	0	0	0	409.366	975.36	-113.868	0.539942	0	-0.318131	17.9813	42.8425	-5.0016
2.975	0	0	0	0	0	0	0	0	0	403.033	794.43	-143.634	0.509523	0	-0.304087	28.5787	56.3324	-10.185
2.98	0	0	0	0	0	0	0	0	0	373.671	625.046	-131.923	0.480627	0	-0.293363	29.9896	50.1641	-10.5877
2.985	0	0	0	0	0	0	0	0	0	320.702	461.243	-83.722	0.441834	0	-0.298022	19.3387	27.8135	-5.04853
2.99	0	0	0	0	0	0	0	0	0	251.912	304.585	-21.1516	0.39202	0	-0.33715	-0.334776	-0.404775	0.0281092
2.995	0	0	0	0	0	0	0	0	0	177.994	168.263	27.4389	0.409309	0	-0.448064	-19.387	-18.3271	-2.98863
3	0	0	0	0	0	0	0	0	0	109.6	69.6597	43.0504	0.555498	0	-0.647869	-21.951	-13.9516	-8.62226
3.005	0	0	0	0	0	0	0	0	0	57.5343	11.4092	25.6089	0.650498	0	-0.862664	-6.03929	-1.19761	-2.68813
3.01	0	0	0	0	0	0	0	0	0	0	0	0	0	0	0	0	0	0
3.015	0	0	0	0	0	0	0	0	0	0	0	0	0	0	0	0	0	0
3.02	0	0	0	0	0	0	0	0	0	0	0	0	0	0	0	0	0	0
3.025	0	0	0	0	0	0	0	0	0	0	0	0	0	0	0	0	0	0
3.03	0	0	0	0	0	0	0	0	0	0	0	0	0	0	0	0	0	0
3.035	0	0	0	0	0	0	0	0	0	0	0	0	0	0	0	0	0	0
3.04	0	0	0	0	0	0	0	0	0	0	0	0	0	0	0	0	0	0
3.045	0	0	0	0	0	0	0	0	0	0	0	0	0	0	0	0	0	0
3.05	0	0	0	0	0	0	0	0	0	0	0	0	0	0	0	0	0	0
3.055	0	0	0	0	0	0	0	0	0	0	0	0	0	0	0	0	0	0
3.06	0	0	0	0	0	0	0	0	0	0	0	0	0	0	0	0	0	0
3.065	0	0	0	0	0	0	0	0	0	0	0	0	0	0	0	0	0	0
3.07	0	0	0	0	0	0	0	0	0	0	0	0	0	0	0	0	0	0
3.075	0	0	0	0	0	0	0	0	0	0	0	0	0	0	0	0	0	0
3.08	0	0	0	0	0	0	0	0	0	0	0	0	0	0	0	0	0	0
3.085	0	0	0	0	0	0	0	0	0	0	0	0	0	0	0	0	0	0
3.09	0	0	0	0	0	0	0	0	0	0	0	0	0	0	0	0	0	0
3.095	0	0	0	0	0	0	0	0	0	0	0	0	0	0	0	0	0	0
3.1	0	0	0	0	0	0	0	0	0	0	0	0	0	0	0	0	0	0
3.105	0	0	0	0	0	0	0	0	0	0	0	0	0	0	0	0	0	0
3.11	0	0	0	0	0	0	0	0	0	0	0	0	0	0	0	0	0	0
3.115	0	0	0	0	0	0	0	0	0	0	0	0	0	0	0	0	0	0
3.12	0	0	0	0	0	0	0	0	0	0	0	0	0	0	0	0	0	0
3.125	0	0	0	0	0	0	0	0	0	0	0	0	0	0	0	0	0	0
3.13	0	0	0	0	0	0	0	0	0	0	0	0	0	0	0	0	0	0
3.135	0	0	0	0	0	0	0	0	0	0	0	0	0	0	0	0	0	0
3.14	0	0	0	0	0	0	0	0	0	0	0	0	0	0	0	0	0	0
3.145	-32.8617	13.0242	-3.10309	1.28231	0	-0.316399	-1.21538	0.481695	-0.114767	0	0	0	0	0	0	0	0	0
3.15	-59.72	106.715	-12.7096	1.2525	0	-0.250118	-2.94618	5.26462	-0.627003	0	0	0	0	0	0	0	0	0
3.155	-95.9885	268.712	-37.8022	1.13732	0	-0.213072	-2.07615	5.812	-0.817631	0	0	0	0	0	0	0	0	0
3.16	-128.328	498.356	-80.6866	1.10953	0	-0.220234	0.00631643	-0.0245295	0.00397146	0	0	0	0	0	0	0	0	0
3.165	-141.721	779.309	-132.627	1.08854	0	-0.230664	1.55222	-8.53549	1.45262	0	0	0	0	0	0	0	0	0
3.17	-136.856	1096.64	-173.611	1.07411	0	-0.241397	1.44809	-11.6037	1.83701	0	0	0	0	0	0	0	0	0
3.175	-136.577	1421.49	-184.507	1.06448	0	-0.249591	0.366215	-3.81156	0.494733	0	0	0	0	0	0	0	0	0
3.18	-170.288	1707.68	-157.327	1.05866	0	-0.254579	-0.982686	9.85454	-0.907893	0	0	0	0	0	0	0	0	0
3.185	-248.831	1918.68	-93.1788	1.05815	0	-0.256653	-2.48538	19.1643	-0.930692	0	0	0	0	0	0	0	0	0
3.19	-354.808	2053.28	-2.68273	1.06223	0	-0.256185	-3.71074	21.4741	-0.0280572	0	0	0	0	0	0	0	0	0
3.195	-454.717	2135.89	89.6233	1.06526	0	-0.254172	-4.27732	20.0913	0.843047	0	0	0	0	0	0	0	0	0
3.2	-517.451	2191.69	153.279	1.06114	0	-0.251602	-3.53016	14.9522	1.0457	0	0	0	0	0	0	0	0	0
3.205	-526.466	2239.29	168.376	1.04729	0	-0.249396	-1.51514	6.44456	0.484576	0	0	0	0	0	0	0	0	0
3.21	-486.829	2288.99	135.222	1.02439	0	-0.24843	-0.0826695	0.388699	0.0229623	0	0	0	0	0	0	0	0	0
3.215	-420.583	2343.27	70.1279	0.997199	0	-0.248636	0.100097	-0.557689	-0.0166902	0	0	0	0	0	0	0	0	0
3.22	-352.497	2396.93	-3.18969	0.971776	0	-0.248973	-0.0201097	0.136743	-0.00018197	0	0	0	0	0	0	0	0	0
3.225	-297.5	2441.59	-68.2837	0.949918	0	-0.249096	-0.0434786	0.35683	-0.00997942	0	0	0	0	0	0	0	0	0
3.23	-250.196	2471.41	-117.199	0.930048	0	-0.249301	-0.06985	0.689969	-0.0327196	0	0	0	0	0	0	0	0	0
3.235	-195.949	2484.4	-147.243	0.909864	0	-0.250003	-0.312427	3.96119	-0.234768	0	0	0	0	0	0	0	0	0
3.24	-133.876	2479.82	-157.842	0.887627	0	-0.250996	-0.643187	11.9139	-0.758326	0	0	0	0	0	0	0	0	0
3.245	-74.1352	2460.32	-149.59	0.865025	0	-0.251696	-0.56572	18.7745	-1.14151	0	0	0	0	0	0	0	0	0
3.25	-26.2176	2432.28	-123.317	0.845457	0	-0.251882	-0.197943	18.3637	-0.931043	0	0	0	0	0	0	0	0	0
3.255	10.2692	2396.63	-81.5855	0.829498	0	-0.251719	0.053711	12.5351	-0.426716	0	0	0	0	0	0	0	0	0
3.26	45.6734	2348.35	-30.6357	0.815168	0	-0.251439	0.0874935	4.49858	-0.0586868	0	0	0	0	0	0	0	0	0
3.265	89.7879	2283.83	18.3896	0.800018	0	-0.251325	-0.177253	-4.50857	-0.0363035	0	0	0	0	0	0	0	0	0
3.27	144.891	2198.71	54.2046	0.781361	0	-0.251636	-0.893746	-13.5625	-0.334356	0	0	0	0	0	0	0	0	0
3.275	207.075	2090.91	70.6571	0.759112	0	-0.252376	-2.10384	-21.2432	-0.717861	0	0	0	0	0	0	0	0	0
3.28	265.345	1962	63.3742	0.735053	0	-0.253313	-3.07651	-22.7481	-0.734783	0	0	0	0	0	0	0	0	0
3.285	307.382	1814.09	28.9007	0.710497	0	-0.253646	-2.05248	-12.1132	-0.192978	0	0	0	0	0	0	0	0	0
3.29	329.44	1651.35	-28.0136	0.686623	0	-0.252629	2.02725	10.1618	-0.172385	0	0	0	0	0	0	0	0	0
3.295	337.418	1483.03	-87.0511	0.665276	0	-0.250001	8.02282	35.2621	-2.06982	0	0	0	0	0	0	0	0	0
3.3	338.509	1316.71	-120.601	0.646359	0	-0.246371	13.1741	51.2439	-4.69356	0	0	0	0	0	0	0	0	0
3.305	333.405	1150.69	-109.213	0.62546	0	-0.243365	14.1142	48.7126	-4.62336	0	0	0	0	0	0	0	0	0
3.31	319.331	976.903	-54.0459	0.597057	0	-0.244315	8.19961	25.0844	-1.38776	0	0	0	0	0	0	0	0	0
3.315	295.582	790.852	23.997	0.559944	0	-0.253329	-4.66067	-12.47	-0.378379	0	0	0	0	0	0	0	0	0
3.32	265.27	596.96	92.4647	0.520434	0	-0.275731	-21.0095	-47.2796	-7.32326	0	0	0	0	0	0	0	0	0
3.325	230.939	408.747	122.935	0.488163	0	-0.316941	-33.9527	-60.0942	-18.074	0	0	0	0	0	0	0	0	0
3.33	191.509	246.907	105.056	0.460256	0	-0.368597	-33.9417	-43.76	-18.6195	0	0	0	0	0	0	0	0	0
3.335	148.204	130.065	52.6124	0.480713	0	-0.370135	-17.3153	-15.1961	-6.14692	0	0	0	0	0	0	0	0	0
3.34	106.301	54.4771	-3.40702	0.443878	0	-0.186532	2.81034	1.44024	-0.0900731	0	0	0	0	0	0	0	0	0
3.345	72.5209	9.71894	-35.8531	0.572695	0	0.0618603	2.90116	0.388801	-1.43429	0	0	0	0	0	0	0	0	0
3.35	0	0	0	0	0	0	0	0	0	0	0	0	0	0	0	0	0	0
3.355	0	0	0	0	0	0	0	0	0	0	0	0	0	0	0	0	0	0
3.36	0	0	0	0	0	0	0	0	0	0	0	0	0	0	0	0	0	0
3.365	0	0	0	0	0	0	0	0	0	0	0	0	0	0	0	0	0	0
3.37	0	0	0	0	0	0	0	0	0	0	0	0	0	0	0	0	0	0
3.375	0	0	0	0	0	0	0	0	0	0	0	0	0	0	0	0	0	0
3.38	0	0	0	0	0	0	0	0	0	0	0	0	0	0	0	0	0	0
3.385	0	0	0	0	0	0	0	0	0	0	0	0	0	0	0	0	0	0
3.39	0	0	0	0	0	0	0	0	0	0	0	0	0	0	0	0	0	0
3.395	0	0	0	0	0	0	0	0	0	0	0	0	0	0	0	0	0	0
3.4	0	0	0	0	0	0	0	0	0	0	0	0	0	0	0	0	0	0
3.405	0	0	0	0	0	0	0	0	0	0	0	0	0	0	0	0	0	0
3.41	0	0	0	0	0	0	0	0	0	0	0	0	0	0	0	0	0	0
3.415	0	0	0	0	0	0	0	0	0	0	0	0	0	0	0	0	0	0
3.42	0	0	0	0	0	0	0	0	0	0	0	0	0	0	0	0	0	0
3.425	0	0	0	0	0	0	0	0	0	0	0	0	0	0	0	0	0	0
3.43	0	0	0	0	0	0	0	0	0	0	0	0	0	0	0	0	0	0
3.435	0	0	0	0	0	0	0	0	0	0	0	0	0	0	0	0	0	0
3.44	0	0	0	0	0	0	0	0	0	0	0	0	0	0	0	0	0	0
3.445	0	0	0	0	0	0	0	0	0	0	0	0	0	0	0	0	0	0
3.45	0	0	0	0	0	0	0	0	0	0	0	0	0	0	0	0	0	0
3.455	0	0	0	0	0	0	0	0	0	0	0	0	0	0	0	0	0	0
3.46	0	0	0	0	0	0	0	0	0	0	0	0	0	0	0	0	0	0
3.465	0	0	0	0	0	0	0	0	0	0	0	0	0	0	0	0	0	0
3.47	0	0	0	0	0	0	0	0	0	0	0	0	0	0	0	0	0	0
3.475	0	0	0	0	0	0	0	0	0	0	0	0	0	0	0	0	0	0
3.48	0	0	0	0	0	0	0	0	0	0	0	0	0	0	0	0	0	0
3.485	0	0	0	0	0	0	0	0	0	-35.1626	59.103	9.89211	1.28487	0	-0.337509	1.11746	-1.87827	-0.314368
3.49	0	0	0	0	0	0	0	0	0	-75.5115	193.231	38.8997	1.14726	0	-0.375343	1.10226	-2.82064	-0.567827
3.495	0	0	0	0	0	0	0	0	0	-125.249	400.305	80.4877	1.10598	0	-0.374046	0.923072	-2.9502	-0.593185
3.5	0	0	0	0	0	0	0	0	0	-166.995	660.484	131.154	1.10128	0	-0.364022	0.116386	-0.46032	-0.091407
3.505	0	0	0	0	0	0	0	0	0	-187.243	934.274	175.443	1.09526	0	-0.354348	-0.61711	3.07915	0.578221
